<?xml version="1.0" encoding="utf-8"?>
<!-- Generator: Adobe Illustrator 27.1.1, SVG Export Plug-In . SVG Version: 6.00 Build 0)  -->
<svg version="1.1" id="Camada_1" xmlns="http://www.w3.org/2000/svg" xmlns:xlink="http://www.w3.org/1999/xlink" x="0px" y="0px"
	 viewBox="0 0 251.6 229.8" style="enable-background:new 0 0 251.6 229.8;" xml:space="preserve">

<g id="Camada_2_00000033370907869028949950000012506586260319179651_">
	<path fill='#676766' class="st0" d="M82.8,52.6l13.1-14.4l-17.3-2c-3.8-3.6,0-5.8,0-5.8l23.6,2.2l5.8-8.2C43.3,12.6,28.8,39.2,28.8,39.2
		c-5.8,0.7-6.4-2.7-6.4-2.7c14.7-8.4,6.2-22.7-4.7-22.2c-10.9,0.4-7.6,17.6-7.6,17.6s0,1.1-4.7-1.1s-7.3,0.2-4,3.6
		C4.7,37.7,13.6,38,13.6,38c3.1,3.6,10,5.1,10,5.1c-38.4,37.6,0,93.1,0,93.1s0.9,4.2,1.3,14.4s4.2,10.7,4.2,10.7l21.3,3.1
		c0,0,6.2,2.2,8.7-5.3c2.4-7.6,8.2-4.4,8.2-4.4l11.8,3.3l-3.3-20.4L97,115.3L84.2,95.7l18.9-18L82.8,52.6z M17,31.7
		c-3.6-11.8,3.3-10.9,3.3-10.9C29.9,27.2,17,31.7,17,31.7z"/>
	<path fill='#676766' class="st0" d="M251.5,85.9c-0.7-8.2-2.4-29.3-13.6-29.6c-11.1-0.2-9.6,0.4-16-4.9s-13.3-15.1-23.3-18.7l0.2-9.6
		c0,0,2.2-13.6,5.1-16.2c2.9-2.7-0.9-8.9-10.2-6.4c-9.3,2.4-27.1,8.5-35.6,20.2l-26.2,2.5l-3.3,10.2l13.3-1.8c0,0,7.6-1.8,8.2,1.8
		c0.7,3.6-2.9,4.4-7.8,4.9c-4.9,0.4-16.3,2.2-16.3,2.2l-8.6,18.2l26.4,16.9L132,98.7l18.1,14.9l-11.9,28.2l8.7,16.9
		c0,0,10-1.1,13.1-2.4c3.1-1.3,6.2-2.4,7.6,2.4c1.3,4.9,2.2,7.7,16.9,5.9c14.7-1.9,18.2-2.7,18-8.7s0-11.8,0-11.8s0.2-5.1,4-8.4
		s21.6-17.6,23.6-26.2c4.7-4.9,8.7-9.3,13.6-10.4C248.6,97.9,252.2,94.1,251.5,85.9z M202.8,60.1c-3.2,0-5.8-2.6-5.8-5.8
		s2.6-5.8,5.8-5.8s5.8,2.6,5.8,5.8S206,60.1,202.8,60.1z"/>
	<path fill='#676766' class="st0" d="M128.8,177.1c0,7.4-8.5,9.4-19,9.4s-17.4-2.4-17.4-9.4c0-6.3,7-9.4,17.4-9.4S128.8,169.9,128.8,177.1z"/>
	<path fill='#676766' class="st0" d="M110.6,210.9c0,7.4-8.5,9.4-19,9.4s-17.4-2.4-17.4-9.4c0-6.3,7-9.4,17.4-9.4S110.6,203.7,110.6,210.9z"/>
	<path fill='#676766' class="st0" d="M173.7,205.3c0,7.4-8.5,9.4-19,9.4s-17.4-2.4-17.4-9.4c0-6.3,7-9.4,17.4-9.4S173.7,198,173.7,205.3z"/>
	<path fill='#676766' class="st0" d="M229.1,220.3c0,7.4-8.5,9.4-19,9.4s-17.4-2.4-17.4-9.4c0-6.3,7-9.4,17.4-9.4S229.1,213.1,229.1,220.3z"/>
</g>
</svg>
