<?xml version="1.0" encoding="utf-8"?>
<!-- Generator: Adobe Illustrator 27.1.1, SVG Export Plug-In . SVG Version: 6.00 Build 0)  -->
<svg version="1.1" id="Camada_1" xmlns="http://www.w3.org/2000/svg" xmlns:xlink="http://www.w3.org/1999/xlink" x="0px" y="0px"
	 viewBox="0 0 710.4 646.6" style="enable-background:new 0 0 710.4 646.6;" xml:space="preserve">
<path fill="#35794b" class="st0" d="M678.2,318.6c0,0-24,2.7-47.1-24c0,0-37.3-61.3-64.9-75.6c0,0,2.7-35.6,30.2-82.7c8-16-8-25.8-28.4-24.9
	c-20.4,0.9-88.9,2.7-130.7,48L297,156.8c-32.7-0.6-65.4,4.2-96.4,14.8c-49.2,16.9-83.4,43.9-106.5,74.8c0,0,0,0,0,0
	c-8.5,3.4-21.3-3.9-21.3-3.9c26.2-14.7,18.7-45.7,18.7-45.7c-8-18.2-30.2-34.3-55.6-17.4c-21.3,28-0.9,52.4-0.9,52.4
	c-11.1,2.7-25.3,0-25.3,0s-9.8-0.4-9.8,8C5.3,255,48.9,251,48.9,251c14.7,11.6,32.4,15.1,32.4,15.1C42,334.2,48.4,414.2,64,448.3
	c7.1,29.9,21.8,52,21.8,52s24.4,36,39.6,51.1c15.1,15.1,21.3,64,21.3,64s3.6,28.4,20.4,30.2c16.9,1.8,76.4,0,76.4,0
	s16.9,4.4,20.4-17.8s9.8-24,25.8-22.2c16,1.8,41.8,6.2,87.1-2.7c16,0.9,16.9,10.7,18.7,18.7s1.8,25.6,28.4,24.8
	c26.7-0.8,57.8,0,57.8,0s29.3,3.6,30.2-27.5c0.9-31.1,7.1-43.6,34.7-64.9c27.6-15.1,61.3-40.9,70.2-53.3c8.9-12.4,38.2-32.9,56-39.1
	c17.8-6.2,36.4,4.9,37.3-60.2C711.1,336.3,708.4,333.7,678.2,318.6z M54.7,229.7c-9.3-15.6-7.6-26.7-7.6-29.3
	c0-2.7,4.8-16.3,20.9-3.5C84,215.1,54.7,229.7,54.7,229.7z M397.9,206.9c0,0-89.2-3.6-133,2.3c-1.2,0.3-2.4,0.5-3.8,0.5
	c-6.5,0-11.9-1.8-11.9-10.4c0-5.8,6.2-9.6,11.9-10.4c0,0,74.2-8.9,133.2-2.4C408.9,192.9,404.1,203.6,397.9,206.9z M566.2,313.1
	c-11.5,0-20.9-9.4-20.9-20.9s9.4-20.9,20.9-20.9s20.9,9.4,20.9,20.9S577.8,313.1,566.2,313.1z"/>
<path fill="#35794b" class="st0" d="M326.6,6.3c-58.1,0-105.1,47.1-105.1,105.1s47.1,105.1,105.1,105.1s105.1-47.1,105.1-105.1S384.7,6.3,326.6,6.3
	z M330.5,154.5v16.3h-9.8v-15.8c-9.1-0.2-18.4-3-23.9-6.9l3.8-10.5c5.6,3.8,13.8,6.7,22.5,6.7c11.1,0,18.6-6.4,18.6-15.3
	c0-8.6-6.1-13.9-17.7-18.6c-15.9-6.3-25.8-13.4-25.8-27c0-13,9.2-22.8,23.6-25.2V42.4h9.7v15.2c9.4,0.3,15.8,2.8,20.3,5.5l-3.9,10.3
	c-3.3-1.9-9.7-5.3-19.7-5.3c-12,0-16.6,7.2-16.6,13.4c0,8.1,5.8,12.2,19.4,17.8c16.1,6.6,24.2,14.7,24.2,28.6
	C355.2,140.2,346.6,151.8,330.5,154.5z"/>
</svg>
